# xmcd CD database file
#
# Track frame offsets:
#	150
#	19683
#	49344
#	62152
#	75232
#	87118
#	100354
#	111636
#	123990
#	131848
#	144175
#	155083
#	168632
#	177054
#	193311
#	214298
#	229148
#	243435
#	251476
#
# Disc length: 3455 seconds
#
# Revision: 2
# Processed by: cddbd v1.5.1PL2 Copyright (c) Steve Scherf et al.
# Submitted via: CDex 1.51
#
DISCID=110d7d13
DTITLE=Grigore Lese - Cântece de Cãntãnie
DYEAR=2003
DGENRE=Cult
TTITLE0=Cantec de catanie
TTITLE1=Trimas-o imparatu carte
TTITLE2=Decat la neamtzu catana
TTITLE3=Cantec despre Bucovina
TTITLE4=Pasaruca di pa munte
TTITLE5=Miresuca cu margele
TTITLE6=Strigaturi
TTITLE7=La hore lapusheneasca
TTITLE8=Zicala miresii (viola)
TTITLE9=Ia-tzi mireasa cununa
TTITLE10=Mai baditza rar in pashi
TTITLE11=Maieran in cornu mesii
TTITLE12=Mandrutz gura dezmierdata
TTITLE13=Zis-a mama cata mine
TTITLE14=Frunza-n prun, frunza su' prun
TTITLE15=Dupa pui de lapushan
TTITLE16=Nu gandesca tat omu'
TTITLE17=Primavara, primavara
TTITLE18=Instrumental (viola)
EXTD=YEAR: 2003
EXTT0=
EXTT1=
EXTT2=
EXTT3=
EXTT4=
EXTT5=
EXTT6=
EXTT7=
EXTT8=
EXTT9=
EXTT10=
EXTT11=
EXTT12=
EXTT13=
EXTT14=
EXTT15=
EXTT16=
EXTT17=
EXTT18=
PLAYORDER=
